<svg xmlns="http://www.w3.org/2000/svg" width="131" height="38" fill="none" xmlns:v="https://vecta.io/nano"><path d="M58.701 8.569v11.598c0 4.33-2.18 6.248-5.585 6.248-3.065 0-5.346-1.861-5.346-6.248V8.569h-2.996v11.539c0 6.074 3.541 8.371 8.241 8.371 2.361 0 4.429-.565 5.958-1.794v2.59c0 1.136-.346 2.23-.971 3.075-1.063 1.435-2.241 2.163-3.504 2.163v2.863c2.116 0 4.072-1.131 5.654-3.27.997-1.346 1.545-3.064 1.545-4.833V8.565h-2.996v.004zM6.754.62H.006v27.402h2.54V16.81l.114.007.87.032h1.827c7.865 0 11.222-2.433 11.222-8.131 0-5.372-3.306-8.096-9.826-8.096L6.754.62zm.035 13.772H2.548V3.074H6.79c4.854 0 7.213 1.857 7.213 5.676s-2.359 5.641-7.213 5.641zm32.521-.756l-.062-.119c-.14-.325-.306-.639-.495-.943l-.22-.42v.085c-1.718-2.462-4.993-4.13-8.396-4.13-5.831 0-10.398 4.557-10.398 10.374 0 5.935 4.471 10.41 10.398 10.41 3.11 0 5.814-1.179 7.738-3.348l.056 2.886h2.462v-5.355c0-.674.021-1.263.039-1.831l.032-1.445c0-2.414-.192-4.288-1.154-6.165zm-9.102 12.837c-4.636 0-8.002-3.361-8.002-7.99s3.409-7.955 7.929-7.955 7.893 3.42 7.893 7.955c0 4.481-3.437 7.99-7.822 7.99h.002z" fill="#152745"/><path d="M109.187 4.788a37.76 37.76 0 0 0-3.794 1.887l-3.83 2.314-4.009 2.704-2.828 2.065.144-.427.574-1.495a8.51 8.51 0 0 0 .5-1.708 8 8 0 0 0 .108-1.851 8.28 8.28 0 0 0-.43-1.814c-.25-.605-.573-1.138-1.038-1.601-.715-.746-1.61-1.246-2.72-1.424s-2.183-.071-3.257.392c-1.145.462-2.219 1.032-3.187 1.779l-2.719 2.1-2.684 2.277-2.972 2.811-3.043 3.06-2.792 3.131-2.29 2.989c-.68.96-1.218 1.814-1.575 2.598-.035.035-.071.143-.106.284a1.06 1.06 0 0 0 .035.57c.035.213.179.427.359.641.179.249.501.462.93.676.286.143.68.284 1.18.392a5.52 5.52 0 0 0 1.539.213 3.96 3.96 0 0 0 1.468-.178c.43-.108.751-.392.93-.784 1.575-3.309 3.543-6.369 5.87-9.18s5.011-5.301 8.018-7.474c.323-.249.68-.498 1.038-.746s.715-.462 1.11-.711l.394-.284c.106-.071.215-.178.394-.284a5.77 5.77 0 0 1 .465-.249c-.035.284-.179.676-.359 1.138a36.67 36.67 0 0 1-.501 1.032 2.42 2.42 0 0 1-.106.284c-.035.106-.108.178-.144.249-.215.533-.43.997-.644 1.46l-.609 1.281c-.465.96-.966 1.887-1.503 2.811-.536.96-1.11 1.887-1.647 2.776l-.68 1.068c-.465.676-.895 1.387-1.289 2.065-.394.711-.751 1.459-1.003 2.278-.144.392-.108.819.071 1.246s.536.819 1.003 1.138 1.003.498 1.539.498c.536.035.966-.108 1.324-.427l6.586-5.444c2.219-1.814 4.511-3.558 6.873-5.266l3.579-2.527c1.145-.746 2.292-1.495 3.437-2.171l.394-.214 1.574-.96-.75.784c-.251.284-.501.57-.751.819-.251.284-.501.57-.751.819-.179.214-.394.427-.574.641-.214.249-.429.462-.608.676-.466.498-.895.997-1.36 1.53s-.93 1.103-1.324 1.638c-.43.57-.824 1.138-1.145 1.744s-.609 1.211-.824 1.814c-.107.321-.25.784-.394 1.316-.179.533-.25 1.138-.286 1.744-.035.641.071 1.281.25 1.887.18.641.574 1.211 1.145 1.744a3.93 3.93 0 0 0 1.504.854c.573.178 1.18.249 1.789.249.895 0 1.754-.178 2.613-.498s1.575-.747 2.148-1.317a1.58 1.58 0 0 0 .536-1.211c-.035-.462-.215-.889-.609-1.281-.465-.462-1.074-.784-1.754-.96-.715-.143-1.324 0-1.789.462-.024.023-.035.047-.035.07-.036.035-.071.035-.107.071l-.108.143c.035-.392.144-.819.286-1.211a15.79 15.79 0 0 1 .394-1.211c.321-.747.68-1.495 1.145-2.241a31.88 31.88 0 0 1 1.718-2.455c.321-.392.715-.819 1.11-1.246l1.217-1.316 1.575-1.708c.536-.57 1.003-1.174 1.468-1.779.43-.605.824-1.246 1.18-1.922.322-.676.574-1.352.716-2.065.108-.533-.036-1.032-.43-1.46-.321-.357-.715-.641-1.218-.819s-.93-.284-1.324-.249c-1.574.071-3.007.392-4.331.96l-.002-.002zm10.129 9.145a13.77 13.77 0 0 0-2.863 2.1 12.13 12.13 0 0 0-2.148 2.741c-.573.997-.895 1.957-1.003 2.882s-.036 1.708.215 2.349c.214.641.536 1.174.93 1.601a3.78 3.78 0 0 0 1.395.96c.536.214 1.038.357 1.539.427a9.93 9.93 0 0 0 3.831-.321c1.253-.357 2.469-.854 3.616-1.495s2.183-1.352 3.149-2.171 1.754-1.601 2.398-2.384c.394-.462.574-.819.609-1.138s-.071-.533-.25-.641-.465-.143-.788-.07a2.39 2.39 0 0 0-.966.605l-2.148 1.851c-.824.641-1.647 1.211-2.507 1.673-.894.498-1.753.819-2.613.997-.894.178-1.718.108-2.469-.214-.321-.106-.536-.357-.644-.676s-.109-.711-.036-1.173c1.79-.178 3.293-.498 4.511-.96 1.18-.427 2.148-.925 2.899-1.46s1.289-1.103 1.61-1.673.536-1.068.609-1.495c.071-.57-.071-1.068-.394-1.495s-.789-.784-1.36-1.068a9.57 9.57 0 0 0-1.933-.605c-.751-.106-1.468-.143-2.148-.106-1.003.071-2.004.392-3.043.96l.002-.002zm4.726 2.42c.179.249.106.605-.215.997-.322.427-.895.854-1.648 1.316-.788.462-1.718.784-2.827.997l.715-1.211a7.71 7.71 0 0 1 .788-1.032 4.64 4.64 0 0 1 .895-.784c.286-.178.573-.319.859-.392.788-.178 1.253-.143 1.433.106v.002z" fill-rule="evenodd" fill="#fc6603"/><path d="M53.367 35.947c0-.791-.645-1.432-1.44-1.432s-1.44.641-1.44 1.432.645 1.432 1.44 1.432 1.44-.641 1.44-1.432z" fill="#fc6603"/></svg>