<svg width="48" height="48" viewBox="0 0 48 48" fill="none" xmlns="http://www.w3.org/2000/svg">
<circle cx="24" cy="24" r="24" fill="#B287D4"/>
<path fill-rule="evenodd" clip-rule="evenodd" d="M18.1265 14.9457C18.1265 14.9457 18.2025 15.0597 18.2215 15.0977L19.8177 17.7771H24.7393L26.5445 14.7937V14.7747C26.7345 14.4897 26.7345 14.1286 26.5445 13.8436C26.3355 13.5586 25.9934 13.4255 25.6704 13.5205C24.6063 13.7866 23.0861 13.9386 21.8699 13.1215C21.2048 12.6844 20.5778 12.4374 20.0077 12.3614C19.5136 12.3044 19.0576 12.3804 18.6395 12.6084C18.2405 12.8175 17.9744 13.1785 17.8604 13.6346C17.7464 14.0716 17.8224 14.5277 18.0695 14.9077L18.1075 14.9457H18.1265Z" fill="white"/>
<path fill-rule="evenodd" clip-rule="evenodd" d="M34.8544 32.1621H28.5267C27.9756 32.1621 27.5195 32.6182 27.5195 33.1692C27.5195 33.7203 27.9756 34.1764 28.5267 34.1764H34.8544C35.4055 34.1764 35.8616 33.7203 35.8616 33.1692C35.8616 32.6182 35.4055 32.1621 34.8544 32.1621Z" fill="white"/>
<path fill-rule="evenodd" clip-rule="evenodd" d="M28.5267 28.8552C27.9756 28.8552 27.5195 29.3113 27.5195 29.8624C27.5195 30.4134 27.9756 30.8695 28.5267 30.8695H34.8544C35.4055 30.8695 35.8616 30.4134 35.8616 29.8624C35.8616 29.3113 35.4055 28.8552 34.8544 28.8552H28.5267Z" fill="white"/>
<path fill-rule="evenodd" clip-rule="evenodd" d="M26.5523 33.1685C26.5523 32.5034 26.8563 31.9144 27.3314 31.5153C26.8563 31.1163 26.5523 30.5272 26.5523 29.8621C26.5523 28.665 27.5214 27.7149 28.6995 27.7149H31.3599C30.9988 26.2137 30.3337 24.6175 29.4596 23.1923C28.0915 20.931 26.3623 19.3158 24.557 18.5747H23.1699L23.4929 19.1068L24.253 20.3609L23.5689 20.779L22.5618 19.1258L22.3337 18.7457L22.1247 19.1258L20.9276 21.311L20.2245 20.931L21.2126 19.1258L21.4216 18.7267L21.4976 18.5937H19.9965C18.1912 19.3348 16.462 20.95 15.0938 23.2113C13.6877 25.5106 12.8516 28.1899 12.8516 30.3372C12.8516 32.6365 13.8017 34.1187 15.7399 34.8977C17.4881 35.6008 19.9204 35.6578 22.2577 35.6578C24.215 35.6578 26.2482 35.6198 27.8634 35.2018C27.0653 34.8787 26.5143 34.1186 26.5143 33.2065L26.5523 33.1685ZM24.69 25.0355C25.0321 25.0355 25.3171 25.3206 25.3171 25.6626C25.3171 26.0046 25.0321 26.2897 24.69 26.2897H23.6259C23.3409 27.2208 22.5808 27.9429 21.6307 28.1329L23.6069 30.4702C23.8349 30.7362 23.7969 31.1353 23.5309 31.3633C23.2649 31.5913 22.8658 31.5533 22.6378 31.2873L19.8824 28.0569C19.7874 27.9429 19.7304 27.7909 19.7304 27.6578V27.5818C19.7304 27.2398 20.0155 26.9548 20.3575 26.9548H21.0606C21.5356 26.9548 21.9727 26.7077 22.2197 26.3087H19.8444C19.5024 26.3087 19.2174 26.0236 19.2174 25.6816C19.2174 25.3396 19.5024 25.0545 19.8444 25.0545H22.4668V24.4464H19.8444C19.5024 24.4464 19.2174 24.1614 19.2174 23.8194C19.2174 23.4773 19.5024 23.1923 19.8444 23.1923H24.652C24.9941 23.1923 25.2791 23.4773 25.2791 23.8194C25.2791 24.1614 24.9941 24.4464 24.652 24.4464H23.7209V25.0545H24.652L24.69 25.0355Z" fill="white"/>
</svg>
